<svg width="409" height="92" viewBox="0 0 409 92" fill="none" xmlns="http://www.w3.org/2000/svg">
<path d="M407.55 29.63C405.467 23.1427 401.666 17.3407 396.55 12.84C390.869 7.79628 384.365 3.76449 377.32 0.919975L375.63 0.22998C367.05 10.52 337.31 18.23 337.31 39.76C337.348 43.9393 338.615 48.0149 340.954 51.479C343.292 54.943 346.598 57.6422 350.46 59.24C355.304 60.8737 360.589 60.5911 365.23 58.45C369.74 56.4 373.18 52.78 375.94 48.74C378.86 44.48 381.09 39.81 383.86 35.46C386.44 31.46 389.74 27.39 394.63 26.25C396.896 25.7142 399.259 25.7422 401.511 26.3315C403.764 26.9207 405.837 28.0533 407.55 29.63ZM407.74 34C405.74 30.06 401.63 28.37 397.38 28.57C393.13 28.77 390.28 31.38 388 34.57C385.42 38.2 383.6 42.35 381.49 46.26C379.566 50.0885 377.164 53.657 374.34 56.88C371.108 60.3992 366.997 62.9948 362.43 64.4C364.55 65.93 367.48 66.27 370.02 66.4C372.892 66.4878 375.766 66.2665 378.59 65.74C383.73 64.82 389.29 63.01 393.09 59.26C387.16 59.34 382.37 55.35 381.95 49.33C383.745 51.5663 386.168 53.2146 388.907 54.0629C391.646 54.9111 394.576 54.9206 397.32 54.09C399.826 53.3532 402.115 52.0191 403.991 50.2023C405.867 48.3856 407.274 46.1405 408.09 43.66C409.247 40.519 409.121 37.049 407.74 34ZM324.2 30.88C324.2 26.12 323.92 22.95 320.8 22.95C319.65 22.9617 318.512 23.196 317.45 23.64C318.55 39.72 314.92 53.89 310.45 53.89C304.63 53.89 307.54 19.42 295.21 19.42C283.85 19.42 282.21 46.94 280.93 46.94C280.05 46.94 279.93 39.71 279.93 34.21C280.367 31.9649 280.611 29.6866 280.66 27.4C280.66 24.84 279.66 20.4 273.8 22.62C274.01 42.29 270.06 54.19 265.63 54.19C259.12 54.19 259.05 36.35 259.05 31.43C259.05 26.51 259.4 20.21 252.26 22.5C251.19 39.67 246.7 52.62 243.86 52.62C239.7 52.6 240.55 23 231.4 23C223.19 23 220.64 51 218.93 51C215.86 51 219.93 19.38 208.02 19.38C201.8 19.38 199.32 29.94 196.88 41.75C196.41 44.04 195.88 44.11 195.83 41.53C195.77 39.41 195.75 37.06 195.77 34.91C198.77 23.03 195.11 18.65 189.61 21.81C191.38 43.72 181.33 54.44 173.61 54.44C172.349 54.4517 171.101 54.1833 169.956 53.6541C168.812 53.1249 167.799 52.3482 166.99 51.38C176.24 45.71 180.36 39.19 180.36 32.83C180.36 25.93 176.36 21.96 169.82 21.96C160.64 21.96 155.5 31.42 155.5 39.45C155.443 43.2254 156.171 46.9715 157.64 50.45C154.49 51.96 151.51 53.26 148.74 54.52C148.5 46.25 147.57 37.52 146.85 29.52C141.96 28.18 140.54 30.52 140.16 34.88C139.29 44.8 135.62 50.97 132.37 50.97C129.92 50.97 128.43 47.97 128.25 44.82C127.34 28.91 140.25 24.49 147.01 26.82C148.41 23.32 146.87 20.82 140.78 20.82C133.39 20.82 127.86 25.31 123.78 31.07C121.08 34.91 117.95 37.64 113.78 40.93C113.886 39.9903 113.939 39.0455 113.94 38.1C114 26.92 107.92 22 102.12 22C97.3203 22 94.3003 24.88 92.5503 29.3C92.1203 24.87 91.2403 22.96 88.6603 22.96C87.1699 23.0145 85.7094 23.3933 84.3803 24.07C85.1303 26.55 85.3803 32.07 85.3803 35.64C85.3803 49.13 81.5103 55.18 77.8003 55.18C73.5503 55.18 72.8703 39.18 72.5203 32.95C71.8559 32.6976 71.151 32.5688 70.4403 32.57C66.6003 32.57 66.0903 37.73 65.1503 42.49C64.1003 47.75 61.0703 54.37 56.5803 54.37C53.8703 54.37 52.1803 51.75 51.9603 47.05C51.5203 37.51 59.4603 26.21 71.8703 29.72C73.5003 25.92 70.9403 23.03 65.7903 23.03C56.7103 23.03 49.2103 29.83 45.9403 37.87C42.6203 45.24 36.8003 56.06 24.9403 56.06C16.5903 56.06 10.2003 48.78 10.2003 33.49C10.2003 20.31 18.5103 7.78998 27.3703 7.78998C33.5703 7.78998 35.0103 13.89 34.4603 19.61C37.6703 22.19 42.9403 19.8 42.9403 13.35C42.9403 8.90998 39.3303 1.34998 27.7003 1.34998C13.2903 1.34998 0.570312 15.71 0.570312 34.59C0.570312 52.86 9.85032 63.67 22.9803 63.67C31.2603 63.67 39.0803 58.94 44.4803 50.22C45.8303 57.86 51.0403 61.07 54.9403 61.07C61.2503 61.07 65.3803 56.99 67.6303 51.45C69.0403 56.99 72.0003 61.09 76.9203 61.09C80.3903 61.09 83.0903 59.34 85.1303 56.51C84.3203 75.77 83.3003 88.05 94.6803 85.63C92.9203 80.16 92.3603 70.19 92.3603 61.24C92.3603 36.75 96.3603 28.69 101.46 28.69C105.13 28.69 106.31 33.37 106.31 38.35C106.331 41.2164 106.019 44.0756 105.38 46.87C99.1503 50.79 94.1903 53.87 94.1903 57.87C94.1903 60.98 96.5003 61.27 98.5003 61.27C103.28 61.27 109.03 56.58 112.21 47.73C115.191 45.9877 117.954 43.8963 120.44 41.5C120.348 42.4037 120.301 43.3115 120.3 44.22C120.3 53.01 124.15 58.31 130.3 58.31C135.11 58.31 138.72 54.9 141.3 49.79C141.46 52.73 141.56 55.44 141.6 57.94C131.84 62.42 121 67 121 79.73C121 86.31 125.75 91.27 131.94 91.27C145.53 91.27 148.63 76.93 148.75 60.27C153.17 58.35 156.47 56.87 160.27 54.99C161.645 56.8199 163.412 58.3187 165.442 59.376C167.472 60.4333 169.713 61.0224 172 61.1C179.67 61.1 185.43 57.04 190.05 48.8C190.87 55.07 192.5 61.1 195.83 61.1C201.91 61.1 203.14 29.32 207.66 29.32C211.12 29.32 208.28 63.71 217.42 63.71C225.25 63.71 226.71 33.45 230.52 33.45C233.22 33.45 233.43 61.11 241.95 61.11C246.14 61.11 250.69 56.11 252.95 45.52C254.02 52.52 257.56 61.11 264.49 61.11C268.49 61.11 272.01 57.02 274.69 51.59C275.43 57.18 277.01 61.11 280.07 61.11C288.07 61.11 287.77 29.39 294.07 29.39C298.99 29.39 297.46 61.11 309.17 61.11C314.75 61.11 317.38 56.36 318.95 50.41C321.1 59.17 324.59 61.11 327.45 61.11C329.26 61.11 330.63 60.47 332.45 58.33C323.43 54.4 324.2 40.11 324.2 30.88ZM132.56 85.34C129.75 85.34 128.26 82.68 128.26 79.65C128.26 71.52 134.26 67.2 141.59 63.49C141.26 81.28 137.13 85.34 132.56 85.34ZM169.12 27.7C171.85 27.7 173.42 30.21 173.12 33.83C172.8 38.08 169.71 42.93 164.34 46.75C161.56 38.77 163.65 27.7 169.12 27.7ZM251.12 11.02C251.119 9.73609 251.611 8.50079 252.495 7.56998C253.38 6.63916 254.588 6.08417 255.87 6.01997C258.48 5.92997 260.28 8.01998 260.27 10.69C260.336 11.9397 259.907 13.1651 259.076 14.1009C258.245 15.0367 257.079 15.6076 255.83 15.69C255.209 15.7093 254.59 15.6013 254.011 15.3726C253.433 15.1439 252.908 14.7993 252.467 14.36C252.027 13.9207 251.681 13.396 251.452 12.8182C251.222 12.2404 251.112 11.6216 251.13 11L251.12 11.02ZM316.41 12.59C316.386 11.395 316.821 10.2361 317.624 9.35098C318.427 8.46588 319.539 7.92168 320.73 7.82998C321.307 7.82662 321.879 7.94081 322.41 8.16558C322.942 8.39035 323.422 8.72099 323.822 9.13736C324.221 9.55373 324.532 10.0471 324.734 10.5874C324.937 11.1277 325.027 11.7036 325 12.28C325.014 13.465 324.578 14.6111 323.78 15.4872C322.982 16.3632 321.881 16.9038 320.7 17C320.125 17.0058 319.555 16.8948 319.024 16.6737C318.493 16.4526 318.012 16.126 317.611 15.7137C317.21 15.3014 316.897 14.8119 316.69 14.275C316.484 13.738 316.389 13.1648 316.41 12.59Z" fill="black"/>
</svg>
